<?xml version="1.0" standalone="no"?>
<!DOCTYPE svg PUBLIC "-//W3C//DTD SVG 20010904//EN"
 "http://www.w3.org/TR/2001/REC-SVG-20010904/DTD/svg10.dtd">
<svg version="1.0" xmlns="http://www.w3.org/2000/svg"
 width="130.000000pt" height="125.000000pt" viewBox="0 0 130.000000 125.000000"
 preserveAspectRatio="xMidYMid meet">
<metadata>
Created by potrace 1.16, written by Peter Selinger 2001-2019
</metadata>
<g transform="translate(0.000000,125.000000) scale(0.027601,-0.023191)"
fill="#000000" stroke="none">
<path d="M2207 5258 c-27 -10 -45 -47 -33 -67 10 -15 -28 -31 -73 -31 -36 0
-41 3 -41 23 0 13 -5 28 -12 35 -21 21 -90 13 -154 -17 -40 -19 -86 -31 -135
-36 -41 -4 -86 -14 -101 -21 -30 -16 -45 -51 -29 -67 18 -18 13 -32 -18 -50
-42 -25 -76 -22 -89 8 -22 48 -93 25 -182 -60 -19 -19 -48 -37 -65 -41 -43
-10 -86 -33 -117 -62 -32 -30 -35 -48 -12 -73 15 -17 15 -20 0 -44 -27 -40
-61 -49 -95 -24 -26 19 -32 20 -57 7 -16 -7 -48 -42 -71 -78 -50 -78 -47 -75
-112 -125 -28 -22 -58 -55 -67 -74 -16 -34 -16 -35 10 -57 29 -26 27 -44 -12
-86 -23 -25 -26 -26 -48 -11 -22 14 -26 14 -49 -1 -30 -20 -48 -52 -70 -131
-10 -33 -35 -82 -55 -110 -38 -49 -59 -106 -53 -135 2 -9 17 -21 34 -27 26
-10 29 -15 23 -40 -4 -15 -13 -40 -21 -56 -12 -23 -17 -26 -34 -17 -52 28 -79
-19 -79 -139 0 -53 -6 -89 -20 -118 -25 -57 -35 -125 -21 -152 8 -14 21 -21
40 -21 34 0 46 -30 35 -86 -5 -29 -10 -34 -33 -34 -15 0 -32 -5 -39 -12 -17
-17 -15 -95 3 -154 8 -28 15 -88 15 -139 0 -112 14 -140 67 -132 32 6 36 3 49
-28 23 -55 18 -73 -21 -89 -52 -22 -47 -52 26 -171 20 -33 42 -83 47 -110 16
-76 28 -102 57 -121 23 -15 27 -15 49 0 24 15 26 14 55 -20 38 -42 39 -66 6
-88 -14 -9 -25 -24 -25 -33 0 -15 43 -81 61 -93 49 -34 81 -69 98 -103 34 -71
79 -117 111 -117 17 0 33 7 39 17 9 16 12 16 43 2 18 -9 40 -28 47 -43 13 -23
12 -28 -2 -44 -32 -35 -17 -64 53 -104 25 -14 56 -29 70 -33 14 -4 53 -34 88
-66 81 -76 136 -90 149 -39 8 32 63 27 97 -9 26 -27 27 -30 13 -52 -20 -30 -5
-54 39 -65 16 -4 34 -10 39 -14 6 -3 30 -7 55 -8 30 -1 74 -15 133 -43 73 -35
94 -41 115 -33 19 7 28 19 32 39 5 28 8 30 47 28 62 -3 84 -17 77 -51 -10 -48
12 -56 129 -49 56 3 134 1 173 -5 39 -6 83 -8 97 -4 23 5 27 12 27 44 0 34 4
39 33 49 31 11 83 10 95 -1 3 -3 6 -14 7 -24 3 -50 51 -56 135 -16 30 15 91
32 136 39 44 7 94 19 110 27 28 13 31 21 22 72 -5 28 46 62 100 65 6 1 12 10
12 22 0 12 8 23 19 26 22 6 34 29 24 45 -3 6 -1 8 4 5 6 -4 25 -1 43 7 25 10
29 14 15 20 -23 8 -27 8 -20 -4 10 -16 -5 -12 -22 6 -15 14 -17 14 -25 -1 -9
-16 -76 -49 -191 -95 l-58 -23 -64 29 c-35 16 -65 33 -65 37 0 8 37 66 50 77
3 3 17 21 31 40 15 19 37 47 51 62 l23 28 105 -10 c58 -5 115 -9 128 -10 27 0
30 -30 7 -74 -9 -16 -13 -31 -10 -34 9 -9 21 11 34 57 12 43 13 43 49 37 20
-3 49 -6 64 -6 15 0 33 -7 42 -15 18 -18 36 -19 71 -3 28 12 48 3 25 -12 -13
-8 -13 -10 2 -10 13 0 58 58 58 75 0 3 -20 -7 -46 -21 -25 -14 -53 -24 -62
-22 -15 3 -14 6 4 23 12 11 36 31 54 45 17 14 48 40 68 59 l37 33 -35 -23
c-35 -23 -80 -59 -132 -104 -23 -20 -32 -22 -60 -14 -18 5 -46 9 -63 9 -57 0
-57 7 -6 135 l48 119 127 26 c70 15 129 24 131 20 2 -3 5 -47 7 -97 2 -78 0
-94 -16 -112 -15 -17 -17 -24 -8 -33 9 -9 12 -8 12 6 0 13 5 16 22 10 20 -6
21 -5 9 10 -11 13 -11 19 3 38 9 13 23 34 33 48 9 14 30 40 47 57 16 18 26 36
22 40 -4 5 -14 -1 -22 -12 -25 -36 -67 -75 -81 -75 -9 0 -13 17 -13 64 l0 65
55 6 c58 8 86 25 38 24 -28 0 -48 -3 -203 -33 -145 -28 -140 -27 -139 -8 0 9
19 55 42 101 40 81 44 86 107 118 36 19 69 38 75 44 5 5 15 9 23 9 12 0 13
-17 8 -98 -4 -53 -10 -105 -12 -114 -3 -10 -1 -18 4 -18 5 0 12 30 15 67 12
127 19 178 26 185 9 10 218 118 228 118 13 0 47 -154 34 -158 -6 -2 -11 -9
-11 -16 0 -10 -53 -91 -70 -106 -15 -14 -39 -60 -31 -60 5 0 35 39 67 88 48
71 59 83 62 64 2 -13 -2 -29 -8 -37 -6 -8 -9 -18 -6 -24 3 -5 0 -11 -6 -14
-10 -4 -11 -7 0 -18 10 -11 12 -10 12 3 0 20 39 31 57 16 8 -6 13 -7 13 0 0 5
-7 16 -16 23 -26 21 -32 50 -17 78 7 14 13 34 13 44 0 9 3 17 8 17 4 0 15 22
24 48 10 27 26 58 35 69 10 12 26 35 35 52 36 64 48 19 28 -102 -8 -52 -15
-64 -70 -119 -33 -34 -60 -66 -60 -72 0 -6 22 14 50 44 27 30 50 49 50 43 0
-22 20 -14 20 7 0 12 7 34 16 51 8 16 12 39 9 50 -4 11 -2 25 3 32 6 7 12 30
14 52 2 33 7 41 26 43 19 3 22 -1 22 -28 0 -17 -11 -48 -25 -68 -33 -48 -32
-66 1 -21 52 69 55 121 8 133 -24 6 -26 10 -21 51 9 67 24 86 67 79 53 -9 63
10 67 122 2 54 9 107 17 122 20 41 37 118 29 139 -9 24 -23 33 -56 33 -28 0
-28 0 -25 63 3 61 4 62 33 65 17 2 36 11 43 20 17 22 15 82 -5 133 -11 30 -17
75 -17 145 -1 118 -11 139 -63 131 -29 -5 -34 -2 -49 28 -22 46 -16 89 14 93
53 8 48 65 -17 166 -23 36 -41 80 -45 106 -14 91 -67 163 -99 131 -27 -27 -64
-2 -85 59 -15 42 -16 40 8 40 26 0 37 43 19 77 -8 15 -39 47 -70 72 -37 31
-66 66 -89 109 -49 94 -102 127 -133 82 -12 -18 -18 -19 -40 -9 -32 15 -75 71
-58 77 7 2 17 16 22 30 13 34 -15 64 -106 109 -38 20 -96 60 -128 89 -67 62
-99 74 -127 49 -11 -10 -20 -24 -20 -32 0 -18 -45 -7 -82 19 -31 21 -33 29
-17 45 6 6 9 23 5 36 -7 30 -67 57 -146 64 -36 4 -76 17 -115 39 -77 42 -126
52 -148 29 -10 -9 -17 -25 -17 -35 0 -23 -39 -30 -88 -16 -29 8 -32 13 -27 35
12 58 -38 77 -154 59 -46 -7 -82 -7 -125 2 -96 18 -99 18 -129 8z m101 -226
c23 -19 42 -39 42 -46 -1 -10 -96 -83 -166 -126 -29 -18 -30 -17 -124 19 -144
55 -138 48 -96 112 l36 54 123 16 c67 8 127 13 132 10 6 -2 29 -20 53 -39z
m376 13 c48 -8 89 -15 91 -17 22 -25 65 -111 59 -118 -9 -8 -205 -80 -218 -80
-16 0 -197 153 -189 160 4 5 28 25 52 45 39 32 49 36 80 30 20 -4 76 -13 125
-20z m-864 -101 c32 -17 47 -30 42 -38 -4 -6 -38 -51 -77 -100 -64 -82 -71
-87 -99 -82 -16 3 -67 9 -113 13 -51 3 -87 11 -89 18 -3 6 3 36 13 66 l18 54
105 47 c58 26 115 47 128 48 12 0 45 -12 72 -26z m655 -51 c47 -36 85 -69 85
-73 0 -4 -40 -19 -88 -33 l-88 -27 -92 32 c-51 17 -91 32 -89 34 5 5 182 133
185 134 1 0 40 -30 87 -67z m657 7 c57 -28 110 -54 118 -59 8 -4 18 -26 21
-47 3 -21 9 -51 13 -65 l7 -26 -83 -6 c-150 -12 -165 -10 -185 21 -10 15 -39
57 -65 93 -27 37 -48 71 -48 75 0 7 90 55 117 63 1 1 48 -22 105 -49z m-1104
-47 c106 -42 107 -34 -10 -104 l-67 -41 -95 7 c-84 6 -93 9 -80 22 8 8 27 31
42 51 15 21 29 39 32 42 3 3 16 20 29 38 16 23 28 31 40 27 9 -3 58 -22 109
-42z m896 -52 c30 -44 60 -82 66 -86 28 -17 1 -25 -88 -25 l-98 0 -72 51 c-40
28 -72 54 -72 58 0 7 176 76 202 80 3 1 31 -35 62 -78z m-679 -30 l80 -29 -45
-11 c-25 -7 -58 -16 -74 -21 -34 -12 -176 -13 -176 -2 0 7 119 90 130 91 3 0
41 -12 85 -28z m426 -28 l69 -48 -71 -3 c-52 -2 -89 3 -138 19 -36 12 -70 25
-74 29 -4 4 25 16 65 27 40 11 74 21 76 22 2 0 35 -20 73 -46z m-1298 -19 c25
-5 37 -12 37 -23 0 -19 -47 -144 -70 -186 -17 -31 -28 -34 -212 -69 l-38 -7 0
64 c0 71 -3 67 124 176 62 53 78 58 159 45z m265 -30 c23 -3 42 -8 42 -11 0
-6 -34 -47 -87 -106 -30 -33 -46 -42 -114 -58 -114 -27 -114 -27 -86 29 14 26
30 65 37 87 25 78 24 77 98 70 37 -3 86 -8 110 -11z m242 -17 c59 -5 -176
-117 -245 -117 -12 0 90 118 104 122 13 3 78 1 141 -5z m1614 1 c7 -7 49 -46
94 -87 l82 -74 0 -69 c0 -58 -3 -68 -17 -68 -34 0 -218 51 -229 63 -12 13 -76
191 -78 217 -1 11 13 17 49 21 82 10 86 10 99 -3z m-1098 -19 l165 0 202 -63
c139 -43 218 -74 253 -97 296 -196 273 -177 414 -346 88 -105 142 -179 161
-221 16 -35 29 -68 29 -74 0 -5 15 -42 34 -81 63 -132 68 -151 87 -307 32
-259 32 -257 10 -390 -12 -69 -26 -156 -31 -194 -10 -65 -16 -84 -53 -151 -47
-84 -77 -152 -77 -171 0 -11 -9 -29 -20 -39 -10 -9 -18 -20 -18 -24 6 -20 -23
-61 -90 -129 -42 -43 -106 -111 -142 -151 -52 -58 -91 -88 -190 -148 -69 -41
-145 -88 -170 -104 -29 -18 -107 -46 -220 -76 l-175 -48 -230 0 -230 0 -170
57 c-94 32 -175 58 -182 58 -6 0 -54 29 -105 63 -51 35 -130 89 -175 119 -78
52 -112 86 -202 204 -22 28 -62 77 -90 109 -28 32 -59 81 -70 109 -11 28 -46
112 -79 187 -56 126 -61 144 -71 250 -7 63 -17 147 -23 187 -12 81 -4 164 37
383 22 117 29 137 114 307 76 154 99 191 154 249 36 37 76 82 90 98 77 92 122
130 247 205 74 45 151 92 170 105 19 13 53 28 75 33 83 20 350 94 355 98 2 3
15 2 27 -1 13 -3 98 -6 189 -6z m947 -96 c20 -59 35 -109 33 -111 -2 -2 -42 7
-87 19 -62 17 -92 31 -116 54 -18 18 -33 36 -33 42 0 5 -13 22 -30 38 -48 46
-41 54 58 58 48 1 98 4 113 5 23 2 27 -5 62 -105z m-300 70 c12 -15 37 -43 55
-64 17 -20 32 -40 32 -44 0 -10 -58 4 -110 27 -53 24 -150 88 -150 100 0 4 34
8 75 8 69 0 77 -2 98 -27z m-1560 -185 c-21 -23 -48 -51 -61 -62 -25 -22 -132
-88 -132 -81 0 2 15 37 34 78 l33 74 69 15 c98 23 99 22 57 -24z m1849 -23
c51 -13 69 -23 74 -39 3 -12 17 -45 31 -75 13 -29 22 -56 19 -58 -12 -12 -138
83 -175 133 -44 58 -48 69 -28 62 6 -3 42 -13 79 -23z m-2042 -30 c-60 -137
-53 -128 -134 -172 -42 -24 -79 -43 -84 -43 -6 0 7 210 14 219 4 4 179 38 206
40 16 1 16 -3 -2 -44z m-254 -112 c-4 -65 -12 -123 -19 -131 -11 -14 -207
-116 -212 -110 -1 2 -10 29 -19 61 -13 44 -14 62 -5 78 31 59 121 191 133 195
12 4 83 18 120 23 5 1 6 -48 2 -116z m2622 61 c8 -2 12 -29 13 -86 1 -46 3
-98 5 -115 2 -18 0 -33 -4 -33 -5 0 -44 24 -87 53 l-80 52 -32 84 c-18 47 -33
88 -33 92 0 6 60 -7 218 -47z m178 -28 c21 -25 134 -218 134 -228 0 -19 -30
-111 -40 -121 -9 -10 -29 -1 -136 67 l-81 50 -7 81 c-3 44 -6 99 -6 123 l0 44
68 -7 c37 -4 67 -8 68 -9z m-2636 -120 c0 -24 -79 -151 -115 -186 l-47 -45 7
65 c4 36 11 73 14 83 8 22 141 100 141 83z m2414 -88 c62 -41 64 -44 70 -93 3
-27 6 -67 6 -88 l0 -38 -49 59 c-48 58 -120 202 -100 202 5 0 38 -19 73 -42z
m479 -28 c43 -53 50 -68 58 -128 11 -89 11 -92 -3 -92 -18 0 -83 123 -103 195
-10 33 -20 66 -22 73 -13 32 27 6 70 -48z m-3077 -7 c-3 -16 -8 -50 -12 -78
-4 -27 -11 -60 -15 -73 -9 -24 -116 -142 -129 -142 -6 0 -38 151 -43 202 -2
13 25 32 93 67 52 28 99 50 103 51 5 0 6 -12 3 -27z m2764 -63 c14 -10 49 -29
78 -44 29 -15 55 -33 58 -40 5 -12 -43 -214 -53 -226 -2 -2 -15 9 -29 25 -14
17 -43 50 -65 73 -38 42 -40 47 -45 130 -3 48 -7 93 -10 100 -5 17 30 7 66
-18z m-2992 -77 c6 -27 17 -81 24 -122 l11 -73 -64 -64 c-35 -35 -76 -72 -91
-83 l-27 -21 -30 54 c-17 29 -31 60 -31 68 0 9 16 65 35 125 l36 110 57 26
c31 14 60 26 63 26 3 1 11 -20 17 -46z m3220 -48 c26 -14 52 -25 57 -25 6 0
23 -45 38 -100 45 -159 45 -159 1 -224 l-37 -57 -60 58 c-32 32 -72 75 -89 95
l-30 38 26 111 c26 110 32 129 42 129 3 0 26 -11 52 -25z m-3039 -120 c-9 -64
-63 -195 -80 -195 -4 0 -10 36 -14 81 l-7 81 53 54 c29 29 54 52 55 51 2 -2
-1 -34 -7 -72z m2788 11 c4 -7 27 -35 51 -61 31 -34 42 -55 42 -79 0 -31 -24
-143 -32 -151 -8 -9 -67 151 -73 200 -3 28 -9 62 -11 78 -6 28 9 37 23 13z
m-2911 -185 l14 -91 -40 -80 c-23 -45 -45 -80 -49 -78 -9 3 -101 176 -101 190
0 9 153 158 158 153 2 -1 10 -44 18 -94z m3408 -27 c26 -59 28 -71 22 -140 -8
-85 -14 -106 -29 -101 -33 11 -66 307 -34 307 7 0 25 -29 41 -66z m-284 -26
c44 -46 78 -87 75 -93 -3 -5 -11 -19 -18 -30 -7 -11 -29 -50 -50 -87 -21 -37
-42 -70 -46 -73 -5 -2 -27 36 -50 85 l-43 89 17 83 c18 95 22 108 30 108 3 0
42 -37 85 -82z m-3281 -130 c28 -53 51 -107 51 -120 0 -13 -14 -43 -30 -68
-16 -25 -30 -48 -30 -53 0 -14 -53 -88 -61 -85 -4 2 -29 23 -54 47 l-47 44 7
126 c7 120 8 127 33 147 15 12 38 31 51 43 13 12 25 20 26 19 1 -2 25 -47 54
-100z m195 -48 c5 -61 -7 -206 -19 -218 -2 -3 -20 29 -39 71 l-35 75 35 71
c19 39 39 71 43 71 4 0 11 -31 15 -70z m3244 24 l51 -45 -5 -132 c-6 -119 -8
-134 -28 -150 -11 -10 -33 -30 -48 -43 -15 -13 -32 -24 -36 -24 -5 0 -35 51
-67 113 l-58 112 47 78 c25 43 46 81 46 83 0 9 33 54 39 54 4 0 30 -21 59 -46z
m-253 -91 l36 -78 -40 -77 c-45 -88 -56 -86 -64 7 -5 67 11 225 24 225 5 0 25
-35 44 -77z m-3060 -140 l36 -77 -17 -93 c-10 -51 -20 -93 -23 -93 -4 0 -39
34 -80 75 -82 82 -83 90 -36 159 14 20 34 55 45 77 12 22 25 37 30 34 5 -3 25
-40 45 -82z m3174 -86 l51 -99 -86 -84 c-48 -46 -88 -84 -89 -84 -9 0 -24 73
-29 137 -6 66 4 117 25 133 4 3 19 29 33 59 15 29 31 50 35 45 5 -5 31 -53 60
-107z m279 -57 c8 -69 7 -80 -17 -136 -14 -33 -34 -71 -43 -85 -14 -20 -19
-22 -27 -9 -6 8 -8 24 -6 35 2 11 7 55 10 98 4 42 10 77 15 77 4 0 10 19 14
42 7 46 24 74 37 61 4 -4 12 -42 17 -83z m-3551 -82 c46 -46 83 -89 83 -97 0
-31 -53 -231 -61 -231 -7 0 -101 45 -117 56 -5 3 -62 225 -62 240 0 14 61 113
70 114 2 0 42 -37 87 -82z m193 17 c25 -55 57 -212 46 -223 -2 -1 -19 17 -38
40 -20 24 -45 54 -57 67 -12 14 -19 31 -17 38 3 8 11 43 18 78 6 36 13 65 15
65 2 0 17 -29 33 -65z m2923 -132 c6 -52 5 -53 -31 -80 -20 -16 -38 -31 -40
-35 -2 -3 -12 -16 -23 -29 -10 -12 -19 -26 -19 -31 0 -5 -6 -8 -12 -5 -7 2
-12 10 -10 16 1 7 -2 10 -8 6 -6 -4 -8 -15 -5 -24 4 -12 -9 -33 -40 -65 -40
-43 -45 -45 -45 -24 0 13 11 40 25 60 14 20 25 40 25 43 0 3 7 22 15 42 12 29
18 33 30 23 12 -10 15 -7 20 17 22 112 41 163 66 183 3 3 10 16 14 30 7 22 9
20 20 -25 7 -28 15 -74 18 -102z m250 86 c15 -22 27 -45 27 -50 0 -5 5 -9 11
-9 13 0 3 -73 -16 -110 -6 -14 -20 -56 -31 -94 -15 -55 -24 -70 -44 -78 -14
-5 -38 -15 -55 -23 -58 -25 -65 -26 -70 -2 -2 12 -14 71 -25 131 l-21 109 41
36 c22 20 62 57 88 83 26 26 52 47 58 47 6 1 22 -17 37 -40z m-3172 -180 c50
-57 50 -59 60 -150 5 -51 7 -94 5 -96 -3 -3 -28 9 -58 26 -29 17 -71 40 -93
52 -22 12 -42 23 -44 25 -4 3 23 125 41 186 13 44 14 44 89 -43z m2964 -127
c9 -51 15 -94 14 -95 -2 -1 -49 -24 -104 -51 -55 -28 -104 -55 -108 -60 -5 -6
-6 12 -2 39 3 28 8 78 12 112 6 60 7 63 81 139 l76 78 7 -34 c3 -19 14 -77 24
-128z m-2769 -106 c9 -16 24 -53 34 -81 l18 -52 -52 28 c-92 52 -94 54 -98
146 l-3 82 43 -47 c23 -26 49 -60 58 -76z m2561 44 c-4 -16 -9 -59 -13 -95
l-7 -65 -51 -26 c-28 -14 -66 -35 -83 -46 -18 -11 -33 -17 -33 -13 0 4 16 43
36 88 26 60 50 96 87 133 29 28 56 52 61 52 5 1 6 -11 3 -28z m-2847 -15 c22
-14 42 -25 44 -25 3 0 30 -15 62 -34 l56 -34 5 -79 c3 -43 6 -98 7 -123 l1
-45 -50 3 c-27 2 -58 5 -67 8 -18 5 -87 105 -128 185 l-24 47 19 61 c10 34 22
61 27 61 5 0 26 -11 48 -25z m317 -189 c27 -9 54 -40 69 -79 6 -18 20 -53 30
-79 10 -26 16 -50 13 -53 -3 -2 -54 8 -114 23 l-108 27 -3 118 -4 119 48 -35
c27 -19 58 -38 69 -41z m278 -207 c51 -65 54 -73 23 -63 -13 4 -49 15 -81 23
l-59 16 -29 75 c-16 41 -29 78 -29 82 0 20 135 -83 175 -133z m2003 93 c-69
-171 -69 -170 -109 -176 -22 -3 -60 -13 -85 -22 -26 -9 -50 -12 -55 -7 -14 14
95 124 168 169 69 42 87 51 81 36z m-2205 -126 c32 -7 59 -15 61 -17 2 -2 21
-56 44 -120 l40 -117 -45 -6 c-99 -13 -101 -12 -199 82 l-91 87 4 66 5 66 61
-13 c34 -8 88 -20 120 -28z m277 -79 c22 -11 129 -142 130 -159 0 -11 -224
-14 -233 -3 -4 5 -16 37 -26 71 -11 33 -26 77 -34 96 -9 20 -13 39 -10 41 6 6
137 -29 173 -46z m1840 -1 c0 -8 -6 -27 -14 -43 -8 -15 -22 -48 -31 -73 -9
-25 -21 -53 -26 -62 -5 -10 -9 -25 -9 -34 0 -12 -6 -15 -22 -11 -13 3 -67 9
-121 12 -53 4 -100 11 -103 16 -5 8 58 89 114 148 8 8 55 25 105 37 112 28
107 27 107 10z m-1680 -43 c50 -13 85 -30 115 -55 5 -5 25 -19 43 -32 18 -13
30 -26 25 -29 -4 -2 -45 -2 -90 1 l-82 5 -44 56 c-60 77 -65 86 -41 77 10 -5
44 -15 74 -23z m1430 -9 c0 -3 -26 -37 -57 -76 -55 -66 -60 -69 -93 -64 -19 3
-61 6 -92 6 -32 0 -58 3 -58 8 1 17 146 93 213 111 82 22 87 23 87 15z m-1353
-239 c40 -55 73 -103 73 -107 0 -4 -25 -14 -54 -22 -30 -9 -58 -20 -61 -26 -8
-12 -61 8 -164 62 -84 45 -84 45 -103 104 -10 32 -16 64 -14 71 5 12 93 20
200 19 l50 -1 73 -100z m244 49 c43 -30 79 -57 79 -59 0 -9 -57 -33 -105 -44
-27 -7 -65 -19 -83 -27 -32 -15 -52 -12 -52 8 0 6 -11 24 -25 42 -37 45 -95
125 -95 131 0 3 45 5 101 5 l101 0 79 -56z m209 31 c40 -14 75 -27 77 -29 3
-2 -13 -9 -34 -15 -21 -7 -62 -19 -91 -29 -36 -11 -55 -13 -60 -6 -4 6 -33 29
-64 53 -32 23 -58 44 -58 46 0 3 35 5 78 5 57 0 98 -7 152 -25z m500 7 c0 -5
-33 -30 -72 -56 l-73 -49 -82 29 c-46 16 -83 31 -83 35 0 3 28 14 63 24 34 9
67 19 72 20 23 7 175 4 175 -3z m255 -14 c8 -8 -132 -188 -147 -188 -24 0
-219 83 -216 92 2 5 37 31 78 58 l75 50 102 -3 c56 -1 104 -5 108 -9z m-1739
-27 c5 -5 29 -20 54 -33 86 -44 190 -138 152 -138 -4 0 -37 10 -73 21 -69 23
-99 47 -148 115 -28 38 -30 44 -14 44 11 0 23 -4 29 -9z m1210 -43 c52 -17 94
-35 94 -38 0 -4 -26 -24 -57 -46 -32 -21 -69 -49 -83 -62 -44 -40 -54 -37
-149 40 -50 40 -91 75 -91 79 0 3 19 11 43 17 23 6 65 18 92 26 28 8 52 15 53
15 2 1 46 -13 98 -31z m-247 -95 c42 -32 87 -68 101 -81 24 -22 24 -23 6 -37
-10 -8 -34 -28 -53 -46 -33 -29 -38 -31 -87 -25 -28 4 -87 14 -131 23 -76 15
-81 18 -107 58 -51 78 -48 83 77 127 61 21 112 38 114 38 3 0 39 -26 80 -57z
m475 11 c50 -20 101 -41 114 -47 22 -10 31 -37 12 -37 -5 0 -10 -4 -10 -9 0
-5 -12 -28 -27 -50 -29 -45 -24 -44 -191 -61 l-103 -11 -50 50 c-56 57 -60 46
34 115 26 20 52 36 57 36 6 0 10 3 10 8 0 6 48 41 59 42 2 0 44 -16 95 -36z
m-899 -153 c57 -9 185 -65 185 -81 0 -6 -32 -10 -82 -10 -70 0 -88 4 -127 27
-50 29 -91 63 -91 77 0 5 15 5 33 2 17 -4 55 -11 82 -15z m1295 -10 c-8 -6
-18 -7 -22 -5 -4 3 -8 1 -8 -5 0 -5 -32 -30 -70 -56 -70 -44 -72 -45 -155 -45
-78 0 -85 2 -85 20 0 11 4 20 10 20 5 0 35 12 67 26 34 16 95 32 148 39 121
16 134 17 115 6z m-592 -103 c17 -5 32 -13 32 -18 0 -10 -97 -40 -150 -47 -44
-5 -175 38 -175 58 0 26 213 32 293 7z"/>
<path d="M1926 3825 c-10 -26 -7 -1428 3 -1444 5 -8 16 -11 25 -8 15 6 16 73
14 734 -3 662 -4 728 -19 731 -9 2 -19 -4 -23 -13z"/>
<path d="M1198 3539 c-17 -9 -18 -37 -18 -358 0 -344 0 -349 -21 -354 -16 -4
-20 -12 -17 -39 l3 -33 225 -3 c124 -1 235 0 248 3 17 4 22 12 22 40 0 28 -4
35 -20 35 -19 0 -20 7 -20 164 0 99 4 167 10 171 6 4 10 -39 10 -122 0 -110 3
-133 20 -161 36 -58 105 -65 151 -16 23 25 24 31 26 212 1 103 3 203 3 223 4
65 -60 154 -139 194 -24 12 -36 14 -44 6 -8 -8 1 -23 31 -54 62 -63 72 -104
84 -325 5 -106 7 -199 4 -207 -3 -8 -17 -15 -31 -15 -36 0 -43 25 -44 175 -2
135 -8 156 -52 170 -15 5 -18 22 -21 146 -2 111 -6 142 -18 149 -20 13 -370
12 -392 -1z m330 -61 c18 -18 16 -202 -2 -217 -9 -8 -56 -11 -142 -9 l-129 3
-3 112 c-2 100 -1 112 15 116 41 11 249 7 261 -5z"/>
<path d="M2759 3377 c-69 -33 -107 -70 -136 -133 -22 -49 -25 -66 -21 -138 3
-67 9 -92 31 -129 57 -97 165 -153 277 -144 70 6 168 38 182 59 4 7 8 50 8 96
0 76 2 85 26 107 36 33 23 49 -35 40 -88 -13 -103 -33 -111 -155 l-5 -85 -47
-9 c-136 -26 -214 68 -206 247 5 112 33 171 95 198 82 35 148 19 193 -46 16
-24 30 -51 30 -59 0 -9 7 -16 15 -16 11 0 15 12 15 51 0 44 -4 55 -31 80 -37
34 -82 49 -169 54 -52 3 -74 -1 -111 -18z"/>
<path d="M2037 3363 c-9 -8 12 -33 28 -33 35 0 40 -30 45 -259 5 -218 6 -226
25 -226 19 0 20 8 23 183 3 208 -7 200 93 83 30 -36 61 -72 69 -81 8 -9 42
-47 75 -85 100 -116 102 -117 124 -91 9 10 11 81 7 263 -2 136 -5 249 -5 251
-1 1 -10 2 -21 2 -19 0 -20 -8 -22 -172 l-3 -172 -70 80 c-38 44 -95 108 -125
144 -71 82 -90 100 -118 111 -27 10 -116 12 -125 2z"/>
<path d="M3145 3360 c-4 -6 -5 -12 -4 -13 2 -1 18 -9 34 -17 l30 -16 3 -226
c2 -185 5 -228 17 -238 12 -10 18 -10 30 0 12 10 15 47 17 183 l3 170 159
-181 c147 -169 176 -196 190 -173 3 4 6 122 6 262 l1 254 -23 0 c-23 0 -23 -1
-26 -135 -4 -229 11 -222 -124 -63 -166 197 -166 196 -242 201 -42 3 -66 0
-71 -8z"/>
<path d="M1974 846 c-46 -20 -79 -72 -78 -122 2 -79 56 -124 151 -124 84 0 93
5 93 49 0 20 5 42 12 49 9 9 -1 12 -45 12 -56 0 -76 -13 -36 -23 16 -4 20 -12
17 -34 -3 -24 -8 -28 -39 -31 -66 -6 -111 66 -95 151 14 73 88 94 139 41 12
-13 25 -24 30 -24 12 0 8 45 -5 58 -16 16 -105 15 -144 -2z"/>
<path d="M3009 837 c-89 -59 -86 -184 6 -223 43 -18 149 -19 162 -1 6 6 13 31
16 55 l5 42 -49 0 c-27 0 -49 -4 -49 -10 0 -5 6 -10 14 -10 18 0 29 -31 20
-54 -7 -19 -55 -22 -86 -5 -56 30 -64 155 -13 206 19 18 80 5 106 -23 28 -30
39 -30 39 -1 0 36 -19 47 -81 47 -42 0 -65 -6 -90 -23z"/>
<path d="M3600 847 c-92 -32 -106 -161 -24 -226 52 -41 157 -19 194 41 33 52
23 122 -24 165 -39 36 -81 42 -146 20z m96 -24 c44 -44 52 -126 18 -180 -21
-33 -73 -31 -108 3 -22 23 -26 35 -26 85 0 84 14 109 61 109 22 0 45 -7 55
-17z"/>
<path d="M528 827 c19 -20 22 -35 22 -104 0 -59 -4 -86 -15 -97 -23 -22 -19
-26 27 -26 39 0 40 1 25 18 -12 13 -17 37 -17 85 0 37 4 67 9 67 5 0 23 -17
40 -37 59 -69 122 -133 132 -133 5 0 9 47 9 105 0 94 2 106 22 125 l22 20 -43
0 c-37 0 -42 -2 -35 -17 4 -10 9 -47 11 -83 l4 -65 -70 75 c-39 41 -70 78 -71
83 0 4 -21 7 -47 7 l-46 0 21 -23z"/>
<path d="M865 725 l0 -125 83 0 c81 0 82 0 82 25 0 27 -15 34 -24 10 -3 -10
-19 -15 -46 -15 l-41 0 3 48 c3 45 4 47 32 45 16 -1 33 -7 37 -14 4 -8 9 -4
14 10 10 31 -1 42 -32 30 -42 -16 -55 -5 -51 43 3 39 6 43 32 46 19 2 32 -2
38 -12 13 -24 28 -19 28 9 0 25 -1 25 -77 25 l-78 0 0 -125z"/>
<path d="M1128 743 c3 -93 2 -109 -14 -120 -26 -19 -13 -24 52 -20 45 2 53 5
37 11 -19 7 -23 16 -23 51 0 47 17 62 49 45 21 -11 31 -4 31 22 0 21 -4 22
-29 6 -33 -20 -51 -3 -51 47 0 43 1 45 29 45 16 0 34 -7 41 -15 18 -22 30 -18
30 10 0 25 -2 25 -77 25 l-78 0 3 -107z"/>
<path d="M1345 839 c-4 -5 -4 -22 -1 -35 l7 -26 20 26 c11 14 29 26 39 26 17
0 19 -10 22 -100 3 -92 1 -102 -17 -115 -18 -13 -14 -14 45 -14 56 0 63 1 48
13 -15 11 -18 30 -18 115 0 93 2 101 19 101 11 0 29 -12 40 -27 l20 -28 1 38
0 37 -109 0 c-66 0 -112 -4 -116 -11z"/>
<path d="M1654 834 c3 -9 6 -65 6 -125 l0 -109 80 0 c61 0 82 3 86 15 10 25
-6 38 -26 20 -11 -10 -31 -15 -52 -13 -32 3 -33 4 -33 48 0 42 2 45 25 44 14
-1 33 -5 43 -9 14 -6 17 -2 17 20 0 22 -3 26 -17 20 -10 -5 -29 -8 -43 -9 -27
-1 -37 25 -26 70 8 29 52 33 72 7 10 -14 15 -15 25 -6 6 6 9 19 6 27 -5 13
-23 16 -88 16 -70 0 -80 -2 -75 -16z"/>
<path d="M2281 740 c-28 -61 -58 -113 -66 -117 -30 -11 -14 -23 30 -23 48 0
55 6 28 25 -15 12 -15 15 0 47 14 31 39 47 69 48 16 0 59 -82 53 -101 -6 -17
-1 -19 39 -19 25 0 46 3 46 6 0 3 -8 18 -19 32 -10 15 -39 69 -66 120 -26 50
-50 92 -55 92 -4 0 -30 -50 -59 -110z"/>
<path d="M2557 843 c-4 -3 -7 -18 -7 -32 0 -15 4 -21 8 -15 12 19 49 34 81 34
17 0 31 -2 31 -5 0 -9 -35 -68 -83 -142 -26 -39 -47 -74 -47 -77 0 -3 45 -6
100 -6 82 0 102 3 107 15 8 23 -4 30 -30 16 -13 -7 -42 -11 -66 -9 l-42 3 65
107 c35 58 62 109 59 112 -9 8 -168 8 -176 -1z"/>
<path d="M3260 841 c0 -5 5 -11 11 -13 6 -2 10 -46 10 -116 l1 -113 86 3 c87
3 87 3 90 31 4 32 -2 34 -30 7 -13 -12 -36 -20 -55 -20 -37 0 -35 -7 -33 125
1 44 5 82 11 83 26 10 3 22 -41 22 -27 0 -50 -4 -50 -9z"/>
<path d="M3860 840 c0 -5 5 -10 10 -10 6 0 10 -42 10 -105 0 -63 -4 -105 -10
-105 -5 0 -10 -4 -10 -10 0 -6 31 -10 74 -10 59 0 78 4 100 21 34 27 35 71 1
100 -22 20 -23 24 -10 43 20 28 19 42 -5 66 -16 16 -33 20 -90 20 -40 0 -70
-4 -70 -10z"/>
<path d="M4450 842 c0 -4 5 -13 11 -19 7 -7 10 -49 7 -117 l-3 -106 88 0 87 0
0 32 0 31 -23 -21 c-15 -14 -36 -22 -60 -22 l-37 0 0 101 c0 85 3 104 18 115
15 12 10 13 -35 14 -29 0 -53 -4 -53 -8z"/>
<path d="M4200 743 c-25 -54 -56 -108 -69 -120 l-24 -23 52 0 c28 0 51 5 51
10 0 6 -7 10 -15 10 -20 0 -19 35 2 71 28 46 65 40 97 -16 14 -25 23 -52 19
-60 -4 -12 5 -15 41 -15 25 0 46 5 46 10 0 6 -4 10 -9 10 -5 0 -35 49 -66 110
-31 61 -61 110 -68 110 -7 0 -33 -44 -57 -97z"/>
<path d="M2328 479 c-63 -33 -87 -113 -53 -179 44 -85 194 -78 241 11 42 83
-19 189 -108 189 -24 -1 -60 -10 -80 -21z m103 -12 c40 -31 57 -112 34 -162
-24 -49 -35 -56 -76 -45 -46 13 -69 53 -69 122 0 68 19 98 63 98 18 0 39 -6
48 -13z"/>
<path d="M1930 480 c0 -6 7 -13 15 -16 22 -9 22 -186 0 -204 -21 -17 -10 -28
25 -25 38 3 44 9 25 25 -17 14 -22 150 -6 150 5 0 38 -32 73 -72 78 -88 100
-109 107 -103 2 3 4 49 2 103 -2 74 1 102 13 117 22 29 20 35 -17 35 -40 0
-52 -9 -32 -24 15 -11 29 -136 15 -136 -4 0 -34 30 -66 67 -32 36 -65 72 -72
80 -16 15 -82 18 -82 3z"/>
<path d="M2600 481 c0 -5 7 -11 15 -15 23 -8 22 -204 -1 -213 -26 -10 2 -19
46 -15 30 3 39 7 31 15 -16 16 -14 97 2 97 6 0 25 -20 40 -44 38 -61 49 -68
99 -64 41 3 42 4 18 15 -14 6 -36 26 -50 44 -14 18 -31 38 -38 46 -11 11 -10
18 7 39 48 61 6 104 -100 104 -38 0 -69 -4 -69 -9z"/>
<path d="M2910 484 c0 -4 7 -15 15 -24 23 -25 23 -180 1 -196 -25 -18 -19 -24
27 -24 38 1 40 2 24 14 -15 12 -17 26 -15 82 l3 69 44 -82 c31 -57 48 -80 56
-73 6 5 24 39 39 75 16 36 33 65 37 65 5 0 9 -29 9 -64 0 -52 -3 -65 -17 -71
-17 -6 -17 -7 -1 -16 19 -11 88 -2 88 11 0 5 -4 10 -9 12 -4 2 -11 47 -14 100
-4 78 -3 98 9 102 25 10 15 26 -16 26 -28 0 -33 -6 -67 -80 -21 -44 -42 -79
-47 -77 -5 2 -28 37 -51 78 -38 70 -43 74 -78 77 -20 2 -37 0 -37 -4z"/>
</g>
</svg>
